<svg width="80" height="80" viewBox="0 0 80 80" fill="none" xmlns="http://www.w3.org/2000/svg">
<path d="M72.5 20H44.9673C43.3859 20 41.8676 19.3676 40.7388 18.2388L34.2612 11.7612C33.1324 10.6324 31.6141 10 30.0327 10H7.5C3.35781 10 0 13.3578 0 17.5V62.5C0 66.6422 3.35781 70 7.5 70H72.5C76.6422 70 80 66.6422 80 62.5V27.5C80 23.3578 76.6422 20 72.5 20Z" fill="black"/>
<path d="M72.5 20H44.9673C43.3859 20 41.8676 19.3676 40.7388 18.2388L34.2612 11.7612C33.1324 10.6324 31.6141 10 30.0327 10H7.5C3.35781 10 0 13.3578 0 17.5V62.5C0 66.6422 3.35781 70 7.5 70H72.5C76.6422 70 80 66.6422 80 62.5V27.5C80 23.3578 76.6422 20 72.5 20Z" fill="#5B1BE8"/>
<path d="M72.5 29.6155C74.0543 29.6155 75.4629 30.2427 76.482 31.2618C77.4879 32.2677 78.1133 33.6565 78.1133 35.1924V62.5001C78.1133 64.036 77.4879 65.4248 76.482 66.4307C75.4629 67.4498 74.0543 68.077 72.5 68.077H7.50005C5.94581 68.077 4.53718 67.4498 3.51813 66.4307C2.5122 65.4248 1.88684 64.036 1.88684 62.5001V35.1924C1.88684 33.6565 2.5122 32.2677 3.51813 31.2618C4.53718 30.2427 5.94581 29.6155 7.50005 29.6155H72.5Z" fill="#651FFF"/>
</svg>
