<svg width="64" height="64" viewBox="0 0 64 64" fill="none" xmlns="http://www.w3.org/2000/svg">
<path d="M58 16H35.9738C34.7087 16 33.4941 15.4941 32.5911 14.5911L27.4089 9.40894C26.5059 8.50589 25.2913 8 24.0262 8H6C2.68625 8 0 10.6862 0 14V50C0 53.3138 2.68625 56 6 56H58C61.3138 56 64 53.3138 64 50V22C64 18.6863 61.3138 16 58 16Z" fill="black"/>
<path d="M58 16H35.9738C34.7087 16 33.4941 15.4941 32.5911 14.5911L27.4089 9.40894C26.5059 8.50589 25.2913 8 24.0262 8H6C2.68625 8 0 10.6862 0 14V50C0 53.3138 2.68625 56 6 56H58C61.3138 56 64 53.3138 64 50V22C64 18.6863 61.3138 16 58 16Z" fill="#5B1BE8"/>
<path d="M58 23.6924C59.2434 23.6924 60.3703 24.1942 61.1855 25.0094C61.9903 25.8142 62.4906 26.9252 62.4906 28.1539V50.0001C62.4906 51.2288 61.9903 52.3398 61.1855 53.1446C60.3703 53.9598 59.2434 54.4616 58 54.4616H6C4.75661 54.4616 3.6297 53.9598 2.81446 53.1446C2.00972 52.3398 1.50943 51.2288 1.50943 50.0001V28.1539C1.50943 26.9252 2.00972 25.8142 2.81446 25.0094C3.6297 24.1942 4.75661 23.6924 6 23.6924H58Z" fill="#30a4f4"/>
<g clip-path="url(#clip0_1160_1698)">
<path d="M15 39.6667C14.4067 39.6667 13.8266 39.4907 13.3333 39.1611C12.8399 38.8314 12.4554 38.3629 12.2284 37.8147C12.0013 37.2665 11.9419 36.6633 12.0576 36.0814C12.1734 35.4995 12.4591 34.9649 12.8787 34.5453C13.2982 34.1258 13.8328 33.8401 14.4147 33.7243C14.9967 33.6086 15.5999 33.668 16.1481 33.895C16.6962 34.1221 17.1648 34.5066 17.4944 35C17.8241 35.4933 18 36.0733 18 36.6667C17.9991 37.462 17.6828 38.2246 17.1203 38.787C16.5579 39.3494 15.7954 39.6658 15 39.6667ZM15 35C14.6704 35 14.3481 35.0977 14.074 35.2809C13.8 35.464 13.5863 35.7243 13.4602 36.0289C13.3341 36.3334 13.301 36.6685 13.3654 36.9918C13.4297 37.3151 13.5884 37.6121 13.8215 37.8452C14.0546 38.0783 14.3515 38.237 14.6748 38.3013C14.9982 38.3656 15.3333 38.3326 15.6378 38.2065C15.9423 38.0803 16.2026 37.8667 16.3858 37.5926C16.5689 37.3185 16.6667 36.9963 16.6667 36.6667C16.6667 36.2246 16.4911 35.8007 16.1785 35.4882C15.866 35.1756 15.442 35 15 35ZM20 46.3333V46C20 44.6739 19.4732 43.4021 18.5355 42.4645C17.5979 41.5268 16.3261 41 15 41C13.6739 41 12.4021 41.5268 11.4645 42.4645C10.5268 43.4021 10 44.6739 10 46L10 46.3333C10 46.5101 10.0702 46.6797 10.1953 46.8047C10.3203 46.9298 10.4899 47 10.6667 47C10.8435 47 11.013 46.9298 11.1381 46.8047C11.2631 46.6797 11.3333 46.5101 11.3333 46.3333V46C11.3333 45.0275 11.7196 44.0949 12.4073 43.4073C13.0949 42.7196 14.0275 42.3333 15 42.3333C15.9725 42.3333 16.9051 42.7196 17.5927 43.4073C18.2804 44.0949 18.6667 45.0275 18.6667 46V46.3333C18.6667 46.5101 18.7369 46.6797 18.8619 46.8047C18.987 46.9298 19.1565 47 19.3333 47C19.5101 47 19.6797 46.9298 19.8047 46.8047C19.9298 46.6797 20 46.5101 20 46.3333ZM26 43C26 42.0991 25.7392 41.2175 25.2491 40.4616C24.7591 39.7056 24.0607 39.1077 23.2383 38.74C22.4159 38.3722 21.5046 38.2504 20.6145 38.3892C19.7244 38.5279 18.8934 38.9214 18.222 39.522C18.1558 39.5801 18.1019 39.6508 18.0632 39.7299C18.0245 39.809 18.0019 39.895 17.9966 39.9829C17.9913 40.0708 18.0035 40.1589 18.0325 40.2421C18.0615 40.3253 18.1066 40.4019 18.1654 40.4675C18.2241 40.5331 18.2953 40.5864 18.3747 40.6244C18.4542 40.6623 18.5404 40.6842 18.6284 40.6886C18.7163 40.6931 18.8043 40.68 18.8872 40.6503C18.9701 40.6206 19.0463 40.5747 19.1113 40.5153C19.591 40.0864 20.1845 39.8055 20.8203 39.7064C21.456 39.6074 22.1069 39.6945 22.6943 39.9572C23.2816 40.2199 23.7804 40.647 24.1304 41.1869C24.4804 41.7269 24.6667 42.3566 24.6667 43C24.6667 43.1768 24.7369 43.3464 24.8619 43.4714C24.987 43.5964 25.1565 43.6667 25.3333 43.6667C25.5101 43.6667 25.6797 43.5964 25.8047 43.4714C25.9298 43.3464 26 43.1768 26 43ZM21.6667 37C21.0733 37 20.4933 36.8241 20 36.4944C19.5066 36.1648 19.1221 35.6962 18.895 35.1481C18.668 34.5999 18.6086 33.9967 18.7243 33.4147C18.8401 32.8328 19.1258 32.2982 19.5453 31.8787C19.9649 31.4591 20.4995 31.1734 21.0814 31.0576C21.6633 30.9419 22.2665 31.0013 22.8147 31.2284C23.3629 31.4554 23.8314 31.8399 24.1611 32.3333C24.4907 32.8266 24.6667 33.4067 24.6667 34C24.6658 34.7954 24.3494 35.5579 23.787 36.1203C23.2246 36.6828 22.462 36.9991 21.6667 37ZM21.6667 32.3333C21.337 32.3333 21.0148 32.4311 20.7407 32.6142C20.4666 32.7974 20.253 33.0577 20.1269 33.3622C20.0007 33.6667 19.9677 34.0019 20.032 34.3252C20.0963 34.6485 20.2551 34.9454 20.4882 35.1785C20.7212 35.4116 21.0182 35.5703 21.3415 35.6346C21.6648 35.699 21.9999 35.6659 22.3045 35.5398C22.609 35.4137 22.8693 35.2 23.0525 34.926C23.2356 34.6519 23.3333 34.3296 23.3333 34C23.3333 33.558 23.1577 33.1341 22.8452 32.8215C22.5326 32.5089 22.1087 32.3333 21.6667 32.3333Z" fill="#5B1BE8"/>
</g>
<defs>
<clipPath id="clip0_1160_1698">
<rect width="16" height="16" fill="white" transform="translate(10 31)"/>
</clipPath>
</defs>
</svg>
