<svg width="323" height="347" viewBox="0 0 323 347" fill="none" xmlns="http://www.w3.org/2000/svg">
<g clip-path="url(#clip0_1160_3161)">
<path d="M302.015 114.002L265.53 119.709L258.734 75.7243L295.219 70.1371L296.53 78.1018" stroke="#241814" stroke-width="0.5" stroke-miterlimit="10"/>
<path d="M314.146 75.4246L277.617 81.0444L284.417 124.984L320.947 119.364L314.146 75.4246Z" stroke="#241814" stroke-width="0.5" stroke-miterlimit="10"/>
<path d="M318.469 102.234H301.061C298.557 102.234 296.53 104.255 296.53 106.751V109.842H263.98C261.118 109.842 258.734 112.219 258.734 115.072V152.637C258.734 155.49 261.118 157.868 263.98 157.868H317.873C320.735 157.868 323.119 155.49 323.119 152.637V122.561V115.072V106.751C323 104.255 320.973 102.234 318.469 102.234Z" fill="#020935"/>
<path d="M283.653 134.568V139.68H298.08V134.568" stroke="#F2EEEB" stroke-width="0.5" stroke-miterlimit="10"/>
<path d="M290.807 128.862V136.232" stroke="#F2EEEB" stroke-width="0.5" stroke-miterlimit="10"/>
<path d="M287.707 133.617L290.807 136.232L294.146 133.617" stroke="#F2EEEB" stroke-width="0.5" stroke-miterlimit="10"/>
<path d="M267.319 96.0522L279.719 94.1501" stroke="#241814" stroke-width="0.5" stroke-miterlimit="10"/>
<path d="M268.392 101.164L280.434 99.3806" stroke="#241814" stroke-width="0.5" stroke-miterlimit="10"/>
<path d="M269.345 106.275L281.269 104.492" stroke="#241814" stroke-width="0.5" stroke-miterlimit="10"/>
<path d="M266.365 117.212C266.484 117.212 266.484 117.212 266.365 117.212C266.603 117.212 266.603 117.331 266.722 117.45C266.603 118.282 266.484 119.114 266.365 120.065C266.484 119.709 266.722 119.471 266.842 119.114C266.961 118.876 267.08 118.876 267.319 118.876C267.438 118.876 267.676 119.114 267.557 119.352C266.722 121.967 266.842 125.177 265.172 127.554C265.053 127.673 264.934 127.792 264.815 127.911C264.219 130.17 262.43 131.834 260.045 131.596C259.926 131.715 259.807 131.834 259.568 131.715C257.78 130.17 256.826 128.03 257.184 125.652C257.78 122.562 260.522 121.373 262.072 118.876C262.072 118.758 262.192 118.758 262.311 118.758C262.549 118.758 262.788 118.876 262.668 119.233C262.43 120.303 262.072 121.254 261.595 122.205C263.145 121.016 264.338 119.827 264.219 117.807C264.219 117.569 264.338 117.45 264.576 117.45C264.695 117.45 264.934 117.45 264.934 117.688C265.053 118.401 265.172 118.995 265.053 119.709C265.411 118.995 265.649 118.163 266.007 117.45C266.126 117.212 266.245 117.212 266.365 117.212Z" fill="#EFCCBC"/>
<path d="M93.7165 121.61C93.2396 120.778 92.2857 122.324 91.5703 123.275C91.2126 122.68 90.6165 121.729 90.1395 121.254C88.2318 119.233 82.8664 117.331 82.8664 117.331C82.5087 117.212 82.3894 117.806 82.7471 117.925C82.7471 117.925 84.8933 119.59 85.8472 120.303C86.2049 120.659 86.4433 120.897 86.801 121.254C86.0856 120.897 85.1318 121.016 84.7741 121.729C83.8202 121.61 83.2241 122.918 83.3433 123.75C83.1048 123.75 82.8664 123.869 82.7471 124.107C82.2702 124.582 82.3894 125.296 82.6279 125.771C83.2241 128.03 85.0125 129.694 87.278 130.288H87.3972C89.1857 130.17 90.9742 129.932 92.4049 128.862C92.5242 128.862 92.6434 128.862 92.6434 128.743C92.7626 128.743 92.8819 128.624 92.8819 128.505C92.7626 126.96 93.0011 125.533 93.3588 123.988C93.478 123.513 94.0742 122.205 93.7165 121.61Z" fill="#EFCCBC"/>
<path d="M199.595 210.055C200.31 209.222 201.026 208.271 201.622 207.083C205.556 199.593 214.38 161.196 213.783 150.379C213.187 139.561 214.618 127.198 187.195 124.82C159.89 122.443 144.748 128.03 140.694 131.715C136.044 135.995 134.494 142.295 136.402 159.294C138.071 174.035 140.932 199.593 149.994 210.055H199.595Z" fill="#651FFF"/>
<path d="M139.74 176.294C139.74 176.294 130.082 209.936 121.259 210.055C112.436 210.173 109.336 210.055 109.336 210.055C109.336 210.055 90.378 197.335 85.8472 130.764L94.1934 127.911C94.1934 127.911 111.721 158.819 117.086 179.622C117.086 179.622 120.067 135.876 149.159 127.792L139.74 176.294Z" fill="#651FFF"/>
<path d="M210.564 176.294C210.564 176.294 220.222 209.936 229.045 210.055C237.868 210.173 240.968 210.055 240.968 210.055C240.968 210.055 259.926 197.335 264.457 130.764L256.111 127.911C256.111 127.911 238.584 158.819 233.218 179.622C233.218 179.622 230.237 135.876 201.145 127.792L210.564 176.294Z" fill="#651FFF"/>
<path d="M167.462 100.233L166.74 113.527L177.335 114.099L178.057 100.805L167.462 100.233Z" fill="#EFCCBC"/>
<path d="M167.521 100.213C167.521 100.213 163.467 109.128 164.183 113.289C164.66 116.142 168.356 117.212 171.098 115.548C172.052 114.953 172.887 114.121 173.364 112.814L167.521 100.213Z" fill="#EFCCBC"/>
<path d="M163.944 124.582C163.944 124.582 161.321 128.862 164.779 131.715C168.237 134.568 176.941 133.142 179.087 124.464C179.206 124.345 166.567 122.443 163.944 124.582Z" fill="#EFCCBC"/>
<path d="M163.944 124.582C163.944 124.582 166.806 118.995 166.567 108.772L177.06 108.415C177.06 108.415 176.941 116.856 179.087 124.464C179.206 124.345 167.998 126.603 163.944 124.582Z" fill="#EFCCBC"/>
<path d="M185.048 207.32H116.251L112.913 158.819H181.71L185.048 207.32Z" fill="#D7D4D4"/>
<path d="M198.641 210.054H116.251V207.32H185.048L198.641 208.271V210.054Z" fill="#D7D4D4"/>
<path d="M185.048 207.32H116.251V208.271H185.048V207.32Z" fill="#BDB8B8"/>
<path d="M185.048 208.271L198.641 209.103V210.055L185.048 210.173V208.271Z" fill="#BDB8B8"/>
<path d="M150.829 181.286C150.829 183.783 149.04 185.804 146.656 185.804C144.39 185.804 142.363 183.902 142.363 181.405C142.363 178.909 144.152 176.888 146.536 176.888C148.802 176.888 150.71 178.909 150.829 181.286Z" fill="#F2EEEB"/>
<path d="M181.71 158.819L182.425 159.057L185.883 207.32H185.048L181.71 158.819Z" fill="#BDB8B8"/>
<path d="M69.3931 130.288L16.931 135.162V72.0391L69.3931 67.1652V130.288Z" fill="white"/>
<path d="M123.644 76.1997L78.6932 78.2206V24.3696L123.644 22.2299V76.1997Z" fill="white"/>
<path d="M64.2662 191.153L4.88852 192.58V126.603L64.2662 125.177V191.153Z" fill="white"/>
<path d="M65.1008 149.428H46.0236C43.2813 149.428 41.0159 151.686 41.0159 154.42V157.868H5.72314C2.62311 157.868 0 160.364 0 163.574V204.467C0 207.558 2.50388 210.173 5.72314 210.173H64.3854C67.4854 210.173 70.1085 207.677 70.1085 204.467V171.776V163.574V154.42C69.9893 151.686 67.8431 149.428 65.1008 149.428Z" fill="#00E5FF"/>
<path d="M25.9926 183.783V189.727H43.1621V183.783" stroke="#241814" stroke-width="0.5" stroke-miterlimit="10"/>
<path d="M34.5773 187.23V178.552" stroke="#241814" stroke-width="0.5" stroke-miterlimit="10"/>
<path d="M30.8811 181.524L34.5773 178.552L38.512 181.524" stroke="#241814" stroke-width="0.5" stroke-miterlimit="10"/>
<path d="M69.9893 210.054H299.273" stroke="#241814" stroke-width="0.5" stroke-miterlimit="10"/>
<path d="M27.3042 150.616L10.1347 151.33V134.33L27.3042 133.617V150.616Z" fill="#EBEDF2"/>
<path d="M58.4238 134.925L30.8811 136.113V133.498L58.4238 132.309V134.925Z" fill="#EBEDF2"/>
<path d="M58.4238 143.246L30.8811 144.435V141.701L58.4238 140.512V143.246Z" fill="#EBEDF2"/>
<path d="M62.0007 78.1017L24.3234 82.1435V79.4094L62.0007 75.4865V78.1017Z" fill="#EBEDF2"/>
<path d="M117.682 48.5016L84.5356 50.2848V47.6695L117.682 45.8864V48.5016Z" fill="#EBEDF2"/>
<path d="M117.682 55.3964L84.5356 57.1795V54.4454L117.682 52.6622V55.3964Z" fill="#EBEDF2"/>
<path d="M117.682 62.2913L84.5356 63.9556V61.3403L117.682 59.5571V62.2913Z" fill="#EBEDF2"/>
<path d="M117.682 69.0672L84.5356 70.8503V68.1162L117.682 66.333V69.0672Z" fill="#EBEDF2"/>
<path d="M62.0007 84.8777L24.3234 88.9195V86.1854L62.0007 82.1436V84.8777Z" fill="#EBEDF2"/>
<path d="M62.0007 91.6537L24.3234 95.5766V92.9613L62.0007 88.9196V91.6537Z" fill="#EBEDF2"/>
<path d="M62.0007 98.3108L24.3234 102.353V99.6185L62.0007 95.5767V98.3108Z" fill="#EBEDF2"/>
<path d="M166.806 0.237793H145.702V50.8791H166.806V0.237793Z" fill="white"/>
<path d="M187.91 0.237793H145.702V50.8791H187.91V0.237793Z" stroke="#241814" stroke-width="0.5" stroke-miterlimit="10"/>
<path d="M168.714 102.709C168.714 102.709 167.521 103.898 165.971 103.779L165.733 104.373C165.733 104.373 163.825 103.422 163.825 100.451C163.825 97.4787 167.283 96.8843 169.071 98.073C169.071 98.073 172.767 96.4088 176.225 97.122C179.802 97.8353 180.16 101.402 179.921 103.066C179.564 104.73 177.656 108.415 177.656 108.772C177.656 108.772 174.794 104.849 174.556 103.304C174.556 103.304 170.264 104.611 168.714 102.709Z" fill="#020935"/>
<path d="M165.017 114.953C165.017 114.953 162.99 122.443 160.01 125.177L163.944 124.701C163.944 124.701 165.733 121.729 166.329 115.786C166.21 115.904 165.613 115.667 165.017 114.953Z" fill="#020935"/>
<path d="M180.041 103.066C180.041 103.066 178.491 119.352 186.002 124.701C186.002 124.701 180.518 124.464 179.206 124.345C179.206 124.345 174.198 125.415 175.748 116.856C175.748 116.856 173.364 108.891 177.06 107.821C177.06 107.821 176.464 102.59 180.041 103.066Z" fill="#020935"/>
<path d="M176.106 104.373C176.106 104.373 177.537 103.185 178.61 104.373C179.564 105.443 178.848 108.177 175.629 107.94C175.629 107.94 174.914 106.275 176.106 104.373Z" fill="#EFCCBC"/>
<path d="M16.931 124.701L67.6047 121.492V130.407L64.2662 130.764V125.177L16.931 126.247V124.701Z" fill="#F2EEEB"/>
<path d="M47.8121 111.744V114.478L62.0007 112.933V110.198L47.8121 111.744Z" fill="#EBEDF2"/>
<path d="M99.7973 29.9569L84.5356 30.6702V43.9843L99.7973 43.1522V29.9569Z" fill="#EBEDF2"/>
<path d="M166.806 25.0829H149.756V27.817H166.806V25.0829Z" fill="#EBEDF2"/>
<path d="M166.806 32.0967H149.756V34.8308H166.806V32.0967Z" fill="#EBEDF2"/>
<path d="M156.79 8.44031C156.79 10.3423 155.24 12.0066 153.213 12.0066C151.306 12.0066 149.636 10.4612 149.636 8.44031C149.636 6.53829 151.186 4.87402 153.213 4.87402C155.121 4.87402 156.79 6.41942 156.79 8.44031Z" fill="#EBEDF2"/>
<path d="M156.79 17.8315C156.79 19.7336 155.24 21.3978 153.213 21.3978C151.306 21.3978 149.636 19.8524 149.636 17.8315C149.636 15.9295 151.186 14.2653 153.213 14.2653C155.121 14.3841 156.79 15.9295 156.79 17.8315Z" fill="#EBEDF2"/>
<path d="M211.637 72.2768L253.845 70.137V19.4957L211.637 21.5166V72.2768Z" stroke="#241814" stroke-width="0.5" stroke-miterlimit="10"/>
<path d="M215.691 40.4179L249.315 38.7537" stroke="#241814" stroke-width="0.5" stroke-miterlimit="10"/>
<path d="M249.315 33.0477L215.691 34.7119V27.6982L249.315 26.1528V33.0477Z" stroke="#241814" stroke-width="0.5" stroke-miterlimit="10"/>
<path d="M215.691 46.124L249.315 44.4597" stroke="#241814" stroke-width="0.5" stroke-miterlimit="10"/>
<path d="M215.691 51.7112L249.315 50.1658" stroke="#241814" stroke-width="0.5" stroke-miterlimit="10"/>
<path d="M215.691 57.4173L249.315 55.7531" stroke="#241814" stroke-width="0.5" stroke-miterlimit="10"/>
<path d="M215.691 63.1234L249.315 61.4591" stroke="#241814" stroke-width="0.5" stroke-miterlimit="10"/>
<path d="M288.661 85.2344L303.804 82.9757" stroke="#241814" stroke-width="0.5" stroke-miterlimit="10"/>
<path d="M265.172 85.9477L278.049 83.9268" stroke="#241814" stroke-width="0.5" stroke-miterlimit="10"/>
<path d="M289.496 90.4649L304.758 88.0874" stroke="#241814" stroke-width="0.5" stroke-miterlimit="10"/>
<path d="M266.245 91.0593L278.884 89.0385" stroke="#241814" stroke-width="0.5" stroke-miterlimit="10"/>
<path d="M166.806 26.3906H183.141" stroke="#241814" stroke-width="0.5" stroke-miterlimit="10"/>
<path d="M166.806 33.4043H183.141" stroke="#241814" stroke-width="0.5" stroke-miterlimit="10"/>
<path d="M121.975 142.295C121.975 129.813 121.975 116.261 121.975 116.142C121.975 107.702 114.701 100.807 105.64 100.807C100.036 100.807 95.0281 103.541 92.1665 107.583" stroke="#241814" stroke-width="0.5" stroke-miterlimit="10"/>
<path d="M91.928 105.087L92.1665 107.464L94.6704 107.345" stroke="#241814" stroke-width="0.5" stroke-miterlimit="10"/>
<path d="M48.766 52.5434L49.0044 49.9282L46.5005 49.5715" stroke="#241814" stroke-width="0.5" stroke-miterlimit="10"/>
<path d="M276.023 52.0679L278.526 52.3056L278.884 49.9281" stroke="#241814" stroke-width="0.5" stroke-miterlimit="10"/>
<path d="M121.736 8.08362L123.644 6.30048L121.975 4.51733" stroke="#241814" stroke-width="0.5" stroke-miterlimit="10"/>
<path d="M204.602 8.08362L206.51 6.30048L204.841 4.51733" stroke="#241814" stroke-width="0.5" stroke-miterlimit="10"/>
<path d="M236.914 82.5002H199.237C196.614 82.5002 194.468 84.64 194.468 87.2553V97.9542V109.723L201.145 102.59H236.914C239.537 102.59 241.684 100.451 241.684 97.8353V87.1364C241.684 84.64 239.537 82.5002 236.914 82.5002Z" fill="#00E5FF"/>
<path d="M134.732 91.2978C135.193 91.2978 135.567 90.9253 135.567 90.4657C135.567 90.0061 135.193 89.6335 134.732 89.6335C134.271 89.6335 133.898 90.0061 133.898 90.4657C133.898 90.9253 134.271 91.2978 134.732 91.2978Z" stroke="#241814" stroke-width="0.5" stroke-miterlimit="10"/>
<path d="M142.006 90.465C142.006 90.9405 141.648 91.2971 141.171 91.2971C140.694 91.2971 140.336 90.9405 140.336 90.465C140.336 89.9895 140.694 89.6329 141.171 89.6329C141.529 89.514 142.006 89.9895 142.006 90.465Z" stroke="#241814" stroke-width="0.5" stroke-miterlimit="10"/>
<path d="M148.325 90.465C148.325 90.9405 147.967 91.2971 147.49 91.2971C147.013 91.2971 146.656 90.9405 146.656 90.465C146.656 89.9895 147.013 89.6329 147.49 89.6329C147.967 89.514 148.325 89.9895 148.325 90.465Z" stroke="#241814" stroke-width="0.5" stroke-miterlimit="10"/>
<path d="M203.172 90.465H235.364" stroke="#241814" stroke-width="0.5" stroke-miterlimit="10"/>
<path d="M203.172 95.1011H235.364" stroke="#241814" stroke-width="0.5" stroke-miterlimit="10"/>
<path d="M290.092 210.173H78.9317V213.145H290.092V210.173Z" stroke="#241814" stroke-width="0.5" stroke-miterlimit="10"/>
<path d="M274.234 192.936C274.234 192.936 263.98 190.44 253.488 198.642C245.261 205.181 239.061 215.166 218.195 215.642C218.195 215.642 225.945 235.375 243.353 246.549C243.353 246.549 266.365 241.913 277.573 227.767C284.726 218.732 296.173 220.159 296.173 220.159L274.234 192.936Z" fill="white"/>
<path d="M210.445 175.343C210.445 175.343 209.729 171.42 209.372 169.993C209.372 169.993 206.629 177.958 208.776 183.07L210.445 175.343Z" fill="#020935"/>
<path d="M233.218 179.622C233.218 179.622 233.576 181.762 232.503 182C232.503 182 232.861 176.175 232.741 175.224C232.622 175.343 233.099 177.72 233.218 179.622Z" fill="#020935"/>
<path d="M168.475 137.421C168.87 137.421 169.19 137.102 169.19 136.708C169.19 136.314 168.87 135.995 168.475 135.995C168.08 135.995 167.76 136.314 167.76 136.708C167.76 137.102 168.08 137.421 168.475 137.421Z" fill="#F2EEEB"/>
<path d="M168.475 141.463C168.87 141.463 169.19 141.144 169.19 140.75C169.19 140.356 168.87 140.036 168.475 140.036C168.08 140.036 167.76 140.356 167.76 140.75C167.76 141.144 168.08 141.463 168.475 141.463Z" fill="#F2EEEB"/>
<path d="M185.655 281.002H168.486V297.644H185.655V281.002Z" stroke="#241814" stroke-width="0.5" stroke-miterlimit="10"/>
<path d="M302.264 295.861H228.937V297.406H302.264V295.861Z" stroke="#241814" stroke-width="0.5" stroke-miterlimit="10"/>
<path d="M301.072 285.638H230.129V295.861H301.072V285.638Z" stroke="#241814" stroke-width="0.5" stroke-miterlimit="10"/>
<path d="M41.8613 281.358H79.5386L79.0617 284.092L42.0997 282.785L41.8613 281.358Z" fill="#BDB8B8"/>
<path d="M82.6387 276.96H38.7612V281.358H82.6387V276.96Z" stroke="#241814" stroke-width="0.5" stroke-miterlimit="10"/>
<path d="M60.7 281.358H41.8613L44.9613 297.288H60.7H76.4386L79.5386 281.358H60.7Z" stroke="#241814" stroke-width="0.5" stroke-miterlimit="10"/>
<path d="M44.3651 234.521C31.1304 236.542 55.6922 276.96 55.6922 276.96H57.2422C57.2422 276.96 50.9229 256.156 49.7306 239.276C48.0613 236.066 46.2729 234.164 44.3651 234.521Z" stroke="#241814" stroke-width="0.5" stroke-miterlimit="10"/>
<path d="M57.2422 218.116C39.8343 220.018 57.2422 276.96 57.2422 276.96H59.0307C59.0307 276.96 59.9846 274.463 61.773 270.778C64.1577 255.443 69.0462 216.808 57.2422 218.116Z" stroke="#241814" stroke-width="0.5" stroke-miterlimit="10"/>
<path d="M59.0307 276.96C59.0307 276.96 75.127 236.661 84.9041 247.478C92.058 255.443 62.0115 276.96 62.0115 276.96H59.0307Z" stroke="#241814" stroke-width="0.5" stroke-miterlimit="10"/>
<path d="M55.4537 276.96C55.4537 276.96 37.3304 258.653 33.3958 261.268C26.3611 266.023 52.4729 276.96 52.4729 276.96H55.4537Z" stroke="#241814" stroke-width="0.5" stroke-miterlimit="10"/>
<path d="M67.2577 276.96C67.2577 276.96 77.7502 263.17 80.1348 268.995C81.4464 272.324 69.7616 276.96 69.7616 276.96H67.2577Z" stroke="#241814" stroke-width="0.5" stroke-miterlimit="10"/>
<path d="M67.0193 260.436C72.8616 244.507 79.5386 223.465 72.5039 227.745C69.1654 229.766 66.6616 235.234 64.7538 241.654C64.3961 252.234 62.8461 263.883 61.773 270.897C63.0846 267.806 64.9923 264.121 67.0193 260.436Z" stroke="#241814" stroke-width="0.5" stroke-miterlimit="10"/>
<path d="M44.9613 297.288C44.9613 297.288 58.5538 302.994 94.3234 301.211C123.297 299.784 76.4386 297.288 76.4386 297.288H44.9613Z" fill="#020935"/>
<path d="M194.24 297.644V259.009C194.24 259.009 193.167 247.716 201.752 247.359H316.572" stroke="#241814" stroke-width="0.5" stroke-miterlimit="10"/>
<path d="M174.924 289.323C174.924 289.798 174.567 290.155 174.09 290.155C173.613 290.155 173.255 289.798 173.255 289.323C173.255 288.847 173.613 288.491 174.09 288.491C174.567 288.491 174.924 288.847 174.924 289.323Z" fill="#BDB8B8"/>
<path d="M180.171 290.155C180.632 290.155 181.005 289.783 181.005 289.323C181.005 288.863 180.632 288.491 180.171 288.491C179.71 288.491 179.336 288.863 179.336 289.323C179.336 289.783 179.71 290.155 180.171 290.155Z" fill="#BDB8B8"/>
<path d="M177.071 295.267C180.363 295.267 183.032 292.606 183.032 289.323C183.032 286.04 180.363 283.379 177.071 283.379C173.778 283.379 171.109 286.04 171.109 289.323C171.109 292.606 173.778 295.267 177.071 295.267Z" stroke="#241814" stroke-width="0.5" stroke-miterlimit="10"/>
<path d="M168.486 297.763L171.109 300.26H189.828V281.953L185.655 281.002V297.763H168.486Z" fill="#020935"/>
<path d="M34.4581 40.1803C34.4581 40.1803 48.1698 30.9079 50.316 19.258C52.5814 7.60815 38.8697 24.0131 50.316 29.7191C55.5622 32.3344 59.6161 25.7962 59.6161 25.7962" stroke="#241814" stroke-width="0.5" stroke-miterlimit="10"/>
<path d="M175.987 104.611L175.867 104.017C174.794 104.136 173.364 104.968 172.648 105.443V104.73H168.594V105.562H167.76V104.73H163.706V108.059H167.76V106.157H168.594V108.059H172.648V106.038C173.125 105.8 174.794 104.73 175.987 104.611ZM167.283 107.583H164.302V105.324H167.283V107.583ZM172.052 107.583H169.071V105.324H172.052V107.583Z" fill="#020935"/>
<path d="M166.21 115.905C166.21 115.905 169.19 116.974 171.814 115.072C171.814 115.072 172.529 122.68 164.898 122.324C164.898 122.205 166.09 117.688 166.21 115.905Z" fill="#CEA697"/>
<path d="M258.734 75.7243C258.734 75.7243 269.107 66.0953 267.319 61.3403C265.53 56.5852 260.761 69.0672 270.18 69.5427C279.599 69.8994 279.48 57.5362 276.499 55.872C273.519 54.2077 271.253 68.1162 281.388 67.1652" stroke="#241814" stroke-width="0.5" stroke-miterlimit="10"/>
</g>
<defs>
<clipPath id="clip0_1160_3161">
<rect width="323" height="347" fill="white"/>
</clipPath>
</defs>
</svg>
